<svg width="34" height="30" viewBox="0 0 34 30" fill="none" xmlns="http://www.w3.org/2000/svg">
<path d="M24.167 1C26.5349 1.00007 28.4579 1.7687 30.0078 3.28906C31.5567 4.8084 32.333 6.68597 32.333 8.99219C32.333 10.1283 32.1383 11.2399 31.7461 12.332C31.3606 13.4055 30.6642 14.6308 29.6191 16.0107C28.575 17.3895 27.1536 18.9669 25.3418 20.7441C23.525 22.5263 21.2187 24.6523 18.4209 27.125L16.666 28.668L14.9111 27.125H14.9121C12.1145 24.6524 9.80888 22.5262 7.99219 20.7441C6.18027 18.9668 4.75803 17.3895 3.71387 16.0107C2.6688 14.6308 1.97241 13.4055 1.58691 12.332C1.19476 11.24 1.00004 10.1283 1 8.99219C1 6.68605 1.77642 4.80838 3.3252 3.28906C4.8752 1.76862 6.7989 1 9.16699 1C10.4679 1.00004 11.7003 1.26878 12.874 1.80762C14.0494 2.3473 15.0597 3.10536 15.9111 4.08789L16.667 4.95996L17.4229 4.08789C18.2742 3.10552 19.2837 2.34724 20.459 1.80762C21.6329 1.26865 22.8658 1 24.167 1Z" stroke="white" stroke-width="2"/>
</svg>
