<svg width="154" height="189" viewBox="0 0 154 189" fill="none" xmlns="http://www.w3.org/2000/svg">
<line x1="31.5" y1="158" x2="31.5" y2="7.99999" stroke="white" stroke-width="15"/>
<path d="M50 0C77.6142 0 100 22.3858 100 50C100 77.6142 77.6142 100 50 100C22.3858 100 0 77.6142 0 50C0 22.3858 22.3858 0 50 0ZM41 9C18.3563 9 0 27.3563 0 50C0 72.6437 18.3563 91 41 91C63.6437 91 82 72.6437 82 50C82 27.3563 63.6437 9 41 9Z" fill="white"/>
<line x1="30" y1="150.5" x2="100" y2="150.5" stroke="white" stroke-width="15"/>
<path d="M81.9922 107.57C81.3047 107.57 80.6797 107.477 80.1172 107.289C79.5703 107.086 79.1016 106.82 78.7109 106.492C78.3203 106.148 78.0156 105.758 77.7969 105.32C77.5938 104.867 77.4922 104.391 77.4922 103.891C77.4922 103.375 77.5938 102.898 77.7969 102.461C78.0156 102.008 78.3203 101.617 78.7109 101.289C79.1016 100.961 79.5703 100.703 80.1172 100.516C80.6797 100.312 81.3047 100.211 81.9922 100.211C82.6953 100.211 83.3203 100.312 83.8672 100.516C84.4297 100.703 84.9062 100.961 85.2969 101.289C85.6875 101.617 85.9844 102.008 86.1875 102.461C86.4062 102.898 86.5156 103.375 86.5156 103.891C86.5156 104.391 86.4062 104.867 86.1875 105.32C85.9844 105.758 85.6875 106.148 85.2969 106.492C84.9062 106.82 84.4297 107.086 83.8672 107.289C83.3203 107.477 82.6953 107.57 81.9922 107.57ZM78.5234 111.344H85.4609V139H78.5234V111.344ZM94.3672 111.344H101.305V115.328C102.836 114.188 104.453 113.203 106.156 112.375C107.859 111.547 109.555 110.914 111.242 110.477L113.281 116.828C110.609 117.094 108.258 117.695 106.227 118.633C104.211 119.555 102.57 120.859 101.305 122.547V139H94.3672V111.344ZM116.797 125.172C116.797 123.188 117.195 121.328 117.992 119.594C118.805 117.859 119.953 116.344 121.438 115.047C122.938 113.75 124.742 112.727 126.852 111.977C128.977 111.227 131.359 110.852 134 110.852C136.641 110.852 139.016 111.227 141.125 111.977C143.25 112.727 145.055 113.75 146.539 115.047C148.039 116.344 149.188 117.859 149.984 119.594C150.797 121.328 151.203 123.188 151.203 125.172C151.203 127.156 150.797 129.016 149.984 130.75C149.188 132.484 148.039 134 146.539 135.297C145.055 136.594 143.25 137.617 141.125 138.367C139.016 139.117 136.641 139.492 134 139.492C131.359 139.492 128.977 139.117 126.852 138.367C124.742 137.617 122.938 136.594 121.438 135.297C119.953 134 118.805 132.484 117.992 130.75C117.195 129.016 116.797 127.156 116.797 125.172ZM124.086 125.172C124.086 126.281 124.305 127.336 124.742 128.336C125.195 129.32 125.844 130.195 126.688 130.961C127.547 131.711 128.586 132.312 129.805 132.766C131.039 133.203 132.438 133.422 134 133.422C135.562 133.422 136.953 133.203 138.172 132.766C139.406 132.312 140.445 131.711 141.289 130.961C142.148 130.195 142.797 129.32 143.234 128.336C143.688 127.336 143.914 126.281 143.914 125.172C143.914 124.062 143.688 123.008 143.234 122.008C142.797 121.008 142.148 120.133 141.289 119.383C140.445 118.617 139.406 118.016 138.172 117.578C136.953 117.125 135.562 116.898 134 116.898C132.438 116.898 131.039 117.125 129.805 117.578C128.586 118.016 127.547 118.617 126.688 119.383C125.844 120.133 125.195 121.008 124.742 122.008C124.305 123.008 124.086 124.062 124.086 125.172Z" fill="white"/>
<path d="M109.703 155.461C109.938 153.977 110.38 152.609 111.031 151.359C111.682 150.109 112.424 149.029 113.258 148.117C114.117 147.18 115.042 146.411 116.031 145.812C117.021 145.214 117.984 144.836 118.922 144.68C119.859 144.497 120.719 144.536 121.5 144.797C122.307 145.057 122.958 145.578 123.453 146.359C123.453 146.958 123.31 147.531 123.023 148.078C122.763 148.625 122.464 149.172 122.125 149.719C121.812 150.266 121.513 150.826 121.227 151.398C120.966 151.971 120.836 152.583 120.836 153.234C120.836 153.911 120.979 154.458 121.266 154.875C121.578 155.266 122.112 155.461 122.867 155.461C123.492 155.461 124.091 155.37 124.664 155.188C125.263 155.005 125.862 154.914 126.461 154.914C126.565 154.914 126.734 154.927 126.969 154.953C127.229 154.953 127.398 154.953 127.477 154.953C127.164 155.396 126.76 155.773 126.266 156.086C125.771 156.398 125.25 156.672 124.703 156.906C124.156 157.115 123.583 157.271 122.984 157.375C122.411 157.479 121.878 157.531 121.383 157.531C120.914 157.531 120.497 157.427 120.133 157.219C119.768 157.01 119.456 156.737 119.195 156.398C118.935 156.06 118.727 155.682 118.57 155.266C118.44 154.823 118.375 154.393 118.375 153.977C117.984 154.419 117.555 154.888 117.086 155.383C116.643 155.852 116.161 156.281 115.641 156.672C115.146 157.062 114.599 157.388 114 157.648C113.427 157.909 112.828 158.039 112.203 158.039C111.526 158.039 110.94 157.792 110.445 157.297C109.951 156.776 109.703 156.164 109.703 155.461ZM112.281 154.25C112.281 154.458 112.281 154.693 112.281 154.953C112.307 155.214 112.477 155.383 112.789 155.461C113.44 155.305 114.182 154.966 115.016 154.445C115.849 153.898 116.63 153.273 117.359 152.57C118.089 151.841 118.701 151.073 119.195 150.266C119.69 149.432 119.938 148.638 119.938 147.883C119.938 147.831 119.924 147.753 119.898 147.648C119.898 147.518 119.898 147.427 119.898 147.375C119.013 147.375 118.115 147.557 117.203 147.922C116.292 148.286 115.471 148.794 114.742 149.445C114.013 150.07 113.414 150.799 112.945 151.633C112.503 152.466 112.281 153.339 112.281 154.25ZM126.07 154.445C126.07 154.107 126.148 153.729 126.305 153.312C126.487 152.87 126.76 152.583 127.125 152.453C127.177 152.427 127.242 152.414 127.32 152.414C127.424 152.388 127.516 152.362 127.594 152.336C127.698 152.31 127.789 152.297 127.867 152.297V154.445C128.023 154.289 128.258 154.003 128.57 153.586C128.909 153.169 129.247 152.727 129.586 152.258C129.951 151.763 130.276 151.294 130.562 150.852C130.875 150.409 131.083 150.083 131.188 149.875L140.289 132.141C140.289 132.141 140.354 132.062 140.484 131.906C140.641 131.75 140.81 131.646 140.992 131.594C141.201 131.516 141.422 131.542 141.656 131.672C141.891 131.802 142.112 132.141 142.32 132.688L136.773 143.859V144.328C137.503 144.432 138.18 144.589 138.805 144.797C139.43 144.979 139.964 145.253 140.406 145.617C140.875 145.982 141.24 146.438 141.5 146.984C141.76 147.505 141.891 148.143 141.891 148.898C141.891 150.174 141.552 151.372 140.875 152.492C140.224 153.586 139.378 154.549 138.336 155.383C137.294 156.19 136.135 156.841 134.859 157.336C133.609 157.805 132.398 158.039 131.227 158.039C130.706 158.039 130.146 157.974 129.547 157.844C128.948 157.688 128.388 157.466 127.867 157.18C127.372 156.867 126.943 156.49 126.578 156.047C126.24 155.578 126.07 155.044 126.07 154.445ZM137.203 146.789C136.839 146.789 136.435 146.958 135.992 147.297C135.576 147.635 135.159 148.078 134.742 148.625C134.326 149.146 133.922 149.745 133.531 150.422C133.141 151.073 132.789 151.724 132.477 152.375C132.19 153.026 131.956 153.638 131.773 154.211C131.591 154.784 131.5 155.24 131.5 155.578C132.229 155.578 133.049 155.409 133.961 155.07C134.872 154.732 135.719 154.289 136.5 153.742C137.307 153.169 137.971 152.518 138.492 151.789C139.039 151.034 139.312 150.253 139.312 149.445C139.312 148.742 139.169 148.13 138.883 147.609C138.596 147.062 138.036 146.789 137.203 146.789Z" fill="white"/>
</svg>
