<svg width="40" height="40" viewBox="0 0 40 40" fill="none" xmlns="http://www.w3.org/2000/svg">
<mask id="mask0_28_95" style="mask-type:alpha" maskUnits="userSpaceOnUse" x="0" y="0" width="40" height="40">
<rect width="40" height="40" fill="#D9D9D9"/>
</mask>
<g mask="url(#mask0_28_95)">
<path d="M30 36.6668C28.6111 36.6668 27.4306 36.1807 26.4583 35.2085C25.4861 34.2363 25 33.0557 25 31.6668C25 31.4724 25.0139 31.271 25.0417 31.0627C25.0694 30.8543 25.1111 30.6668 25.1667 30.5002L13.4167 23.6668C12.9444 24.0835 12.4167 24.4099 11.8333 24.646C11.25 24.8821 10.6389 25.0002 10 25.0002C8.61111 25.0002 7.43056 24.5141 6.45833 23.5418C5.48611 22.5696 5 21.3891 5 20.0002C5 18.6113 5.48611 17.4307 6.45833 16.4585C7.43056 15.4863 8.61111 15.0002 10 15.0002C10.6389 15.0002 11.25 15.1182 11.8333 15.3543C12.4167 15.5904 12.9444 15.9168 13.4167 16.3335L25.1667 9.50016C25.1111 9.3335 25.0694 9.146 25.0417 8.93766C25.0139 8.72933 25 8.52794 25 8.3335C25 6.94461 25.4861 5.76405 26.4583 4.79183C27.4306 3.81961 28.6111 3.3335 30 3.3335C31.3889 3.3335 32.5694 3.81961 33.5417 4.79183C34.5139 5.76405 35 6.94461 35 8.3335C35 9.72238 34.5139 10.9029 33.5417 11.8752C32.5694 12.8474 31.3889 13.3335 30 13.3335C29.3611 13.3335 28.75 13.2154 28.1667 12.9793C27.5833 12.7432 27.0556 12.4168 26.5833 12.0002L14.8333 18.8335C14.8889 19.0002 14.9306 19.1877 14.9583 19.396C14.9861 19.6043 15 19.8057 15 20.0002C15 20.1946 14.9861 20.396 14.9583 20.6043C14.9306 20.8127 14.8889 21.0002 14.8333 21.1668L26.5833 28.0002C27.0556 27.5835 27.5833 27.2571 28.1667 27.021C28.75 26.7849 29.3611 26.6668 30 26.6668C31.3889 26.6668 32.5694 27.1529 33.5417 28.1252C34.5139 29.0974 35 30.2779 35 31.6668C35 33.0557 34.5139 34.2363 33.5417 35.2085C32.5694 36.1807 31.3889 36.6668 30 36.6668Z" fill="white"/>
</g>
</svg>
